<svg width="30" height="30" viewBox="0 0 30 30" fill="none" xmlns="http://www.w3.org/2000/svg">
<path d="M10.6268 14.4531C10.6268 14.8794 10.4575 15.2882 10.1561 15.5896C9.85461 15.8911 9.44577 16.0604 9.01947 16.0604C8.59317 16.0604 8.18433 15.8911 7.8829 15.5896C7.58146 15.2882 7.41211 14.8794 7.41211 14.4531C7.41211 14.0268 7.58146 13.6179 7.8829 13.3165C8.18433 13.0151 8.59317 12.8457 9.01947 12.8457C9.44577 12.8457 9.85461 13.0151 10.1561 13.3165C10.4575 13.6179 10.6268 14.0268 10.6268 14.4531ZM17.0563 14.4531C17.0563 14.8794 16.8869 15.2882 16.5855 15.5896C16.2841 15.8911 15.8752 16.0604 15.4489 16.0604C15.0226 16.0604 14.6138 15.8911 14.3123 15.5896C14.0109 15.2882 13.8416 14.8794 13.8416 14.4531C13.8416 14.0268 14.0109 13.6179 14.3123 13.3165C14.6138 13.0151 15.0226 12.8457 15.4489 12.8457C15.8752 12.8457 16.2841 13.0151 16.5855 13.3165C16.8869 13.6179 17.0563 14.0268 17.0563 14.4531ZM21.8784 16.0604C22.3047 16.0604 22.7135 15.8911 23.015 15.5896C23.3164 15.2882 23.4857 14.8794 23.4857 14.4531C23.4857 14.0268 23.3164 13.6179 23.015 13.3165C22.7135 13.0151 22.3047 12.8457 21.8784 12.8457C21.4521 12.8457 21.0432 13.0151 20.7418 13.3165C20.4404 13.6179 20.271 14.0268 20.271 14.4531C20.271 14.8794 20.4404 15.2882 20.7418 15.5896C21.0432 15.8911 21.4521 16.0604 21.8784 16.0604Z" fill="#BDBDBD"/>
<path d="M6.06979 26.995L6.10193 26.9885C9.04341 26.4051 10.8404 25.6351 11.6763 25.2124C12.9068 25.5406 14.1752 25.706 15.4488 25.7043C22.5501 25.7043 28.3077 20.6668 28.3077 14.4527C28.3077 8.23865 22.5501 3.20117 15.4488 3.20117C8.34742 3.20117 2.58984 8.23865 2.58984 14.4527C2.58984 17.2817 3.78412 19.8695 5.75635 21.8466C5.61837 23.1166 5.33579 24.3666 4.91409 25.5725L4.90927 25.5901C4.78943 25.9355 4.65863 26.277 4.51707 26.614C4.39009 26.913 4.63602 27.2473 4.95588 27.1959C5.32825 27.135 5.6996 27.068 6.06979 26.995ZM7.35568 21.9993C7.37819 21.764 7.34852 21.5266 7.26879 21.304C7.18905 21.0815 7.0612 20.8793 6.89436 20.7118C5.19056 19.0016 4.19721 16.8123 4.19721 14.4527C4.19721 9.32201 9.02573 4.80854 15.4488 4.80854C21.8718 4.80854 26.7003 9.32201 26.7003 14.4527C26.7003 19.585 21.8718 24.0969 15.4488 24.0969C14.3157 24.0986 13.1874 23.9516 12.0926 23.6597C11.71 23.5572 11.303 23.5995 10.9497 23.7786C10.3277 24.0937 8.95661 24.6948 6.71595 25.214C7.02854 24.1646 7.24271 23.0884 7.35568 21.9993Z" fill="#BDBDBD"/>
</svg>
