<svg width="86" height="80" viewBox="0 0 86 80" fill="none" xmlns="http://www.w3.org/2000/svg">
<g clip-path="url(#clip0_3212_627)">
<path fill-rule="evenodd" clip-rule="evenodd" d="M47.7258 14.702C55.2438 14.1738 63.1655 9.85071 69.8369 13.3629C76.5423 16.893 79.521 25.0741 81.3943 32.427C83.0812 39.0487 80.8159 45.6927 79.7947 52.4498C78.7822 59.1497 79.1356 66.2113 75.4317 71.8813C71.4682 77.9486 65.7756 84.0138 58.5926 84.9063C51.4902 85.7888 45.3819 80.2422 39.3631 76.363C34.7555 73.3933 32.1077 68.5366 27.8448 65.0888C22.3159 60.6172 13.9153 59.5052 10.6818 53.1664C7.21123 46.3627 7.13283 37.6585 10.309 30.712C13.4842 23.7676 20.5102 19.336 27.5219 16.3358C33.8639 13.6222 40.8465 15.1853 47.7258 14.702Z" fill="#E7FCDD"/>
<path fill-rule="evenodd" clip-rule="evenodd" d="M69.2143 23.9091C73.3143 23.9091 76.6689 20.5545 76.6689 16.4545C76.6689 12.3545 73.3143 9 69.2143 9C65.1143 9 61.7598 12.3545 61.7598 16.4545C61.7598 20.5545 65.1143 23.9091 69.2143 23.9091ZM69.2143 11.1121C72.1961 11.1121 74.5567 13.4727 74.5567 16.4545C74.5567 19.4364 72.1961 21.797 69.2143 21.797C66.2325 21.797 63.8719 19.4364 63.8719 16.4545C63.8719 13.4727 66.2325 11.1121 69.2143 11.1121Z" fill="#757589"/>
<path fill-rule="evenodd" clip-rule="evenodd" d="M80.6459 27.1394C79.0307 27.0152 77.5398 27.6364 76.7944 28.8788C75.8004 26.5182 73.4398 24.9031 70.7065 24.7788H69.8368C68.4701 24.7788 67.2277 25.1515 66.1095 26.0212L61.5126 29.1273C60.3944 29.8727 58.9035 30.3697 57.5368 30.3697H52.4429C52.3186 30.3697 52.1944 30.3697 52.0701 30.3697C50.2065 30.494 48.8398 32.1091 48.8398 33.8485C48.9641 35.7121 50.5792 37.0788 52.3186 37.0788H57.4126C59.2762 37.0788 61.1398 36.7061 62.8792 35.9606L62.3823 43.0424H58.5308C56.6671 43.0424 55.052 44.4091 54.8035 46.1485L51.5732 64.0394C51.2005 66.1515 52.5671 68.1394 54.6792 68.5121H54.8035H54.9277C55.052 68.5121 55.1762 68.5121 55.3005 68.5121C56.6671 68.5121 57.9095 67.7667 58.5308 66.7727C59.0277 67.8909 60.0217 68.8849 61.2641 69.2576L61.5126 69.3818C61.7611 69.3818 62.0095 69.5061 62.1338 69.5061C63.9974 69.5061 65.4883 68.2637 65.9853 66.5243L68.0974 57.2061H70.7065L72.8186 66.4C73.1914 68.2637 74.8065 69.5061 76.6701 69.5061C76.7944 69.5061 77.0429 69.5061 77.1671 69.5061C77.4156 69.5061 77.5398 69.3818 77.7883 69.3818C79.7762 68.7606 81.0186 66.6485 80.5217 64.5364L78.1611 54.2243C79.7762 52.6091 80.7701 50.6212 81.1429 48.3849L83.6277 32.1091C84.2489 29.7485 82.8823 27.6364 80.6459 27.1394ZM57.0398 65.0334C56.9156 65.903 56.1701 66.5243 55.4247 66.5243H55.3005H55.052C54.1823 66.2758 53.5611 65.4061 53.6853 64.5364L56.9156 46.6455C57.0398 45.7758 57.7853 45.1546 58.655 45.1546H64.4944L65.3641 32.1091L63.6247 33.2273C61.7611 34.3455 59.6489 34.9667 57.5368 34.9667H52.4429C51.8217 34.9667 51.3247 34.4697 51.3247 33.8485C51.3247 33.1031 51.8217 32.4818 52.4429 32.4818H57.5368C59.4004 32.4818 61.1398 31.9849 62.755 30.9909L67.352 27.8849C68.0974 27.3879 68.9671 27.0152 69.8368 27.1394H70.7065C70.8307 27.1394 71.0792 27.1394 71.2035 27.1394C73.8126 27.5121 75.552 29.8727 75.3035 32.4818L72.9429 47.3909C72.8186 48.2606 72.0732 48.8818 71.2035 48.8818L60.1459 48.7576L57.0398 65.0334ZM81.8883 31.6121L79.4035 47.8879C79.0307 50 77.9126 51.9879 76.1732 53.3546L78.9065 64.9091C79.155 65.903 78.5338 67.0212 77.4156 67.2697C77.2914 67.394 77.1671 67.394 77.0429 67.394C76.1732 67.394 75.3035 66.7727 75.1792 65.903L72.8186 54.8455C72.5701 54.8455 72.4459 54.8455 72.1974 54.8455C71.9489 54.8455 71.8247 54.8455 71.5762 54.8455H66.6065L64.1217 65.903C63.8732 66.7727 63.1277 67.394 62.258 67.394C62.1338 67.394 62.1338 67.394 62.0095 67.394C61.8853 67.394 61.8853 67.2697 61.7611 67.2697C60.7671 67.0212 60.1459 66.0273 60.3944 64.9091L62.6307 54.9697H62.5065C61.5126 54.7212 60.7671 53.603 61.0156 52.6091C61.2641 51.7394 62.0095 51.1182 62.8792 51.1182H71.2035C73.3156 51.1182 75.1792 49.5031 75.552 47.3909L78.0368 31.1152C78.1611 30.1212 79.155 29.3758 80.2732 29.5C81.3914 29.6243 82.0126 30.494 81.8883 31.6121Z" fill="#757589"/>
<path fill-rule="evenodd" clip-rule="evenodd" d="M16.1635 23.9091C20.2635 23.9091 23.6181 20.5545 23.6181 16.4545C23.6181 12.3545 20.2635 9 16.1635 9C12.0635 9 8.70898 12.3545 8.70898 16.4545C8.70898 20.5545 11.9393 23.9091 16.1635 23.9091ZM16.1635 11.1121C19.1453 11.1121 21.506 13.4727 21.506 16.4545C21.506 19.4364 19.1453 21.797 16.1635 21.797C13.1817 21.9212 10.6969 19.4364 10.6969 16.4545C10.6969 13.4727 13.1817 11.1121 16.1635 11.1121Z" fill="#757589"/>
<path fill-rule="evenodd" clip-rule="evenodd" d="M31.197 46.1483C30.8242 44.2846 29.3333 43.0422 27.4697 43.0422H23.6182L23.1212 35.9604C24.8606 36.7059 26.7242 37.0786 28.5879 37.0786H33.6818C33.8061 37.0786 33.9303 37.0786 34.0545 37.0786C35.9182 36.9543 37.2849 35.3392 37.2849 33.5998C37.2849 31.8604 35.5455 30.3695 33.8061 30.3695H28.5879C27.2212 30.3695 25.7303 29.9968 24.6121 29.1271L20.0152 26.021C18.897 25.2756 17.6545 24.9028 16.4121 24.9028H15.5424C13.5545 24.9028 11.8152 25.7725 10.5727 27.2634C10.2 27.6362 9.95152 28.0089 9.70303 28.3816C8.95758 26.8907 7.34243 25.8968 5.60303 26.1453C3.36667 26.6422 1.87576 28.7543 2.24849 30.9907L4.85758 47.8877C5.10606 50.124 6.22424 52.2362 7.71515 53.9756L5.23031 64.9089C4.73334 67.1453 5.97576 69.3816 8.21212 70.0028L8.46061 70.1271C8.70909 70.2513 8.95758 70.2513 9.08182 70.2513C10.9455 70.1271 12.4364 68.8847 12.9333 67.1453V67.021L15.0455 57.3301H17.6545L19.7667 66.8968C20.1394 68.7604 21.7545 70.1271 23.6182 70.1271C23.9909 70.1271 24.3636 70.0028 24.7364 69.8786C26.103 69.3816 26.9727 68.3877 27.3455 67.1453C28.0909 68.1392 29.2091 68.7604 30.4515 68.7604C30.7 68.7604 30.9485 68.7604 31.197 68.6362C33.1849 68.2634 34.5515 66.2756 34.1788 64.1634L31.197 46.1483ZM24.1152 67.7665C23.9909 67.8907 23.8667 67.8907 23.7424 67.8907C22.8727 67.8907 22.1273 67.2695 21.8788 66.3998L19.3939 54.9695H14.6727C14.3 54.9695 13.803 54.9695 13.4303 54.8453L10.9455 66.2756C10.697 67.1453 9.95152 67.7665 9.08182 67.7665C8.95758 67.7665 8.95758 67.7665 8.83334 67.7665C8.70909 67.7665 8.70909 67.7665 8.58485 67.7665C7.59091 67.518 6.9697 66.3998 7.21818 65.4059L9.82728 53.2301C8.08788 51.8634 6.9697 49.8756 6.59697 47.6392L4.11212 30.7422C3.86364 29.624 4.60909 28.6301 5.72728 28.3816C6.72121 28.2574 7.71515 28.8786 7.8394 29.9968V30.121L10.3242 47.018C10.5727 49.2543 12.4364 50.8695 14.5485 50.9937H22.7485C23.8667 51.118 24.6121 51.9877 24.6121 53.1059C24.6121 53.9756 24.1152 54.721 23.2455 54.9695H22.997L25.3576 65.4059C25.8545 66.3998 25.1091 67.518 24.1152 67.7665ZM25.6061 56.0877L25.7303 56.7089L25.6061 56.0877ZM30.9485 66.6483H30.8242H30.7H30.5758C29.7061 66.6483 28.9606 66.0271 28.8364 65.1574L26.2273 50.2483C26.103 49.3786 25.2333 48.6331 24.3636 48.7574H14.797C13.9273 48.6331 13.1818 48.0119 13.0576 47.2665L10.8212 32.3574C10.5727 30.9907 11.0697 29.624 11.9394 28.6301C12.8091 27.6362 14.0515 27.015 15.4182 27.015H16.2879C17.1576 27.015 18.0273 27.3877 18.7727 27.8846L23.3697 30.8665C24.8606 31.8604 26.7242 32.4816 28.4636 32.4816H33.5576C34.1788 32.4816 34.6758 32.9786 34.6758 33.5998C34.6758 34.3453 34.1788 34.9665 33.5576 34.9665H28.4636C26.3515 34.9665 24.2394 34.3453 22.3758 33.2271L20.6364 32.1089L21.6303 45.0301H27.3455C28.2152 45.0301 28.9606 45.6513 29.0849 46.521L32.3152 64.6604C32.5636 65.6543 31.9424 66.524 30.9485 66.6483Z" fill="#757589"/>
<path fill-rule="evenodd" clip-rule="evenodd" d="M46.23 65.2817H44.3664V41.4271H58.6543C59.3997 41.4271 60.0209 40.8059 60.1452 39.9362C60.1452 39.1908 59.524 38.5696 58.7785 38.4453C58.7785 38.4453 58.7785 38.4453 58.6543 38.4453H27.4694C26.724 38.4453 26.1028 39.0665 25.9785 39.9362C25.9785 40.6817 26.5997 41.3029 27.3452 41.4271C27.3452 41.4271 27.3452 41.4271 27.4694 41.4271H41.6331V65.2817H39.7694C39.024 65.1574 38.2785 65.6544 38.1543 66.5241C38.03 67.2696 38.527 68.015 39.3967 68.1392C39.5209 68.1392 39.7694 68.1392 39.8937 68.1392H46.4785C47.224 68.1392 47.8452 67.518 47.9694 66.7726C47.7209 66.0271 46.9755 65.2817 46.23 65.2817Z" fill="#757589"/>
</g>
<defs>
<clipPath id="clip0_3212_627">
<rect width="82" height="61.1273" fill="white" transform="translate(2 9)"/>
</clipPath>
</defs>
</svg>
