<svg width="86" height="80" viewBox="0 0 86 80" fill="none" xmlns="http://www.w3.org/2000/svg">
<path fill-rule="evenodd" clip-rule="evenodd" d="M76 46.045V33.9551C76 33.3011 75.378 32.6791 74.724 32.6791H66.5737L66.5259 32.5196C66.1271 31.3074 65.6167 30.159 65.0106 28.9947L64.9309 28.8511L70.4016 22.7105C70.8323 22.232 70.8004 21.4186 70.3378 20.956L62.028 12.6462C61.5655 12.1996 60.7521 12.1837 60.2736 12.6143L54.1329 18.0851L53.9894 18.0053C52.8091 17.3673 51.6607 16.8729 50.4804 16.4901L50.3209 16.4422V8.27598C50.3209 7.62204 49.6989 7 49.045 7H36.8275C36.2214 7.0638 35.6791 7.65394 35.6791 8.27598V16.4263L35.5196 16.4741C34.3393 16.8729 33.1909 17.3673 32.0106 17.9894L31.8671 18.0691L25.7264 12.5984C25.2479 12.1677 24.4345 12.1837 23.972 12.6303L15.6622 20.956C15.1996 21.4026 15.1837 22.232 15.5984 22.7105L21.0691 28.8511L20.9894 28.9947C20.3673 30.159 19.8729 31.3074 19.4741 32.5196L19.4263 32.6791H11.276C10.622 32.6791 10 33.3011 10 33.9551V46.045C10 46.6989 10.622 47.3209 11.276 47.3209H19.4103L19.4582 47.4964C19.8569 48.884 20.3833 50.2876 21.0213 51.6433L21.101 51.8028L15.6781 57.2417C15.4548 57.465 15.3272 57.7999 15.3272 58.1508C15.3272 58.5017 15.4548 58.8366 15.6781 59.0599L23.9879 67.3697C24.4505 67.8323 25.3117 67.8323 25.7743 67.3697L31.1174 62.0266L31.2769 62.1223C32.7124 63.0155 34.1 63.7013 35.5355 64.2276L35.695 64.2915V71.7719C35.695 72.4258 36.3171 73.0479 36.971 73.0479H49.0609C49.7148 73.0479 50.3369 72.4258 50.3369 71.7719V64.2915L50.4964 64.2276C51.9159 63.7013 53.3195 63.0155 54.755 62.1223L54.9145 62.0266L60.2576 67.3697C60.7202 67.8323 61.5814 67.8323 62.044 67.3697L70.3538 59.0599C70.5771 58.8366 70.7047 58.5017 70.7047 58.1508C70.7047 57.7999 70.5771 57.465 70.3538 57.2417L64.9149 51.8028L64.9947 51.6433C65.6327 50.2876 66.159 48.9 66.5578 47.4964L66.6056 47.3209H74.74C75.378 47.305 76 46.6989 76 46.045ZM73.448 44.769H65.6646C65.1063 44.769 64.564 45.1996 64.4364 45.7419C63.9899 47.6878 63.2243 49.7134 62.2832 51.4679C62.028 51.9464 62.1237 52.6003 62.5065 52.9831L67.6583 58.1349L61.1349 64.6264L55.9831 59.4746C55.5843 59.0759 54.8985 58.9961 54.42 59.2992C52.6017 60.4476 50.7037 61.6278 48.71 62.1861C48.1837 62.3296 47.769 62.8719 47.769 63.4142V70.448H38.231V63.4142C38.231 62.8719 37.8163 62.3296 37.29 62.1861C35.3444 61.6569 33.5051 60.5049 31.7128 59.3823L31.7127 59.3823L31.58 59.2992C31.1015 58.9961 30.4157 59.0759 30.0169 59.4746L24.8652 64.6264L18.3417 58.1349L23.4935 52.9831C23.8763 52.6003 23.972 51.9464 23.7168 51.4679C22.7757 49.7134 22.0261 47.6878 21.5636 45.7419C21.436 45.1996 20.8937 44.769 20.3354 44.769H12.552V35.231H20.3514C20.8937 35.231 21.436 34.8163 21.5795 34.29C22.058 32.5674 22.7279 31.0203 23.7327 29.2818C23.9879 28.8192 23.9241 28.2131 23.5732 27.8144L18.3258 21.913L24.9449 15.2939L30.8304 20.5413C31.2291 20.8922 31.8671 20.972 32.3137 20.7008C34.0681 19.6641 35.5196 19.0421 37.3059 18.5476C37.8323 18.4041 38.231 17.8777 38.247 17.3354V9.55196H47.7849V17.3514C47.7849 17.8937 48.1996 18.42 48.726 18.5636C50.5123 19.058 51.9478 19.68 53.7182 20.7168C54.1808 20.9879 54.8188 20.9082 55.2015 20.5573L61.087 15.3098L67.7061 21.929L62.4587 27.8304C62.1078 28.2291 62.044 28.8352 62.2992 29.2977C63.304 31.0522 63.958 32.5834 64.4524 34.3059C64.5959 34.8323 65.1382 35.247 65.6805 35.247H73.4799V44.769H73.448ZM43.0003 23.6196C38.5503 23.6196 34.9297 27.2402 34.9297 31.6902C34.9297 36.1402 38.5503 39.7608 43.0003 39.7608C47.4502 39.7608 51.0708 36.1402 51.0708 31.6902C51.0708 27.2402 47.4502 23.6196 43.0003 23.6196ZM43.0003 37.2088C39.9539 37.2088 37.4657 34.7366 37.4657 31.6742C37.4657 28.6278 39.9379 26.1397 43.0003 26.1397C46.0466 26.1397 48.5348 28.6119 48.5348 31.6742C48.5189 34.7366 46.0466 37.2088 43.0003 37.2088ZM55.0905 54.8813C54.7715 54.8813 54.4526 54.7377 54.1974 54.4825C53.9422 54.2433 53.7986 53.9083 53.8146 53.5893V51.3245C53.8146 48.7087 50.9277 45.7899 46.7807 45.7899H39.2206C35.0736 45.7899 32.1867 48.7087 32.1867 51.3245V53.5893C32.1867 53.9083 32.0591 54.2273 31.8039 54.4825C31.5487 54.7377 31.2297 54.8813 30.9107 54.8813C30.5918 54.8813 30.2728 54.7377 30.0176 54.4825C29.7624 54.2273 29.6348 53.9083 29.6348 53.5893V51.3245C29.6348 46.8745 33.9412 43.2539 39.2206 43.2539H46.7807C52.076 43.2539 56.3665 46.8745 56.3665 51.3245V53.5893C56.3665 53.9083 56.2389 54.2273 55.9837 54.4825C55.7285 54.7377 55.4095 54.8813 55.0905 54.8813Z" fill="#757589"/>
</svg>
