<svg width="86" height="80" viewBox="0 0 86 80" fill="none" xmlns="http://www.w3.org/2000/svg">
<path fill-rule="evenodd" clip-rule="evenodd" d="M40.2847 79.8771C48.1276 78.6076 49.6932 67.4636 55.7846 62.3437C60.7753 58.1489 68.3598 57.9694 72.423 52.8643C76.9992 47.1146 81.4125 39.581 79.5718 32.4567C77.7233 25.3019 68.8082 23.0363 63.4164 18.0036C58.7487 13.6469 55.6883 7.77541 50.0121 4.86607C43.5945 1.57675 36.2915 -1.17152 29.283 0.508636C22.1705 2.21374 16.6257 7.8786 12.4131 13.8798C8.45233 19.5223 7.0089 26.3566 6.3178 33.2247C5.65026 39.8586 5.88129 46.5747 8.50699 52.6991C11.169 58.9083 16.0764 63.5579 21.2018 67.9415C27.0248 72.9216 32.7331 81.0994 40.2847 79.8771Z" fill="#FFF3EA"/>
<path d="M29.9878 7C28.6236 7 27.2901 7.40453 26.1558 8.16244C25.0215 8.92034 24.1374 9.99759 23.6154 11.2579C23.0933 12.5183 22.9567 13.9051 23.2229 15.2431C23.489 16.5811 24.1459 17.8101 25.1106 18.7748C26.0752 19.7394 27.3042 20.3963 28.6422 20.6625C29.9802 20.9286 31.367 20.792 32.6274 20.2699C33.8877 19.7479 34.965 18.8638 35.7229 17.7295C36.4808 16.5952 36.8853 15.2617 36.8853 13.8975C36.8837 12.0687 36.1565 10.3152 34.8633 9.02201C33.5701 7.72883 31.8167 7.00162 29.9878 7ZM55.2756 7C53.9113 6.9997 52.5776 7.40397 51.4431 8.1617C50.3087 8.91942 49.4243 9.99656 48.9021 11.2569C48.3798 12.5172 48.243 13.9041 48.5089 15.2422C48.7749 16.5803 49.4317 17.8094 50.3963 18.7742C51.3608 19.739 52.5899 20.3961 53.9279 20.6623C55.2659 20.9286 56.6528 20.7921 57.9133 20.2701C59.1737 19.7481 60.2511 18.864 61.009 17.7297C61.767 16.5954 62.1716 15.2618 62.1716 13.8975C62.1696 12.069 61.4424 10.316 60.1497 9.023C58.8569 7.72995 57.104 7.00242 55.2756 7ZM29.9878 9.29917C30.8974 9.29886 31.7866 9.56829 32.5429 10.0734C33.2993 10.5785 33.889 11.2965 34.2372 12.1367C34.5855 12.9769 34.6768 13.9016 34.4995 14.7936C34.3223 15.6857 33.8844 16.5052 33.2414 17.1485C32.5984 17.7917 31.779 18.2298 30.887 18.4074C29.995 18.5849 29.0703 18.4939 28.23 18.1459C27.3897 17.7979 26.6714 17.2086 26.1661 16.4523C25.6608 15.6961 25.391 14.807 25.391 13.8975C25.3918 12.6785 25.8764 11.5096 26.7382 10.6474C27.6001 9.78528 28.7688 9.30038 29.9878 9.29917ZM55.2756 9.29917C56.1851 9.29917 57.0741 9.56885 57.8303 10.0741C58.5865 10.5794 59.1759 11.2976 59.5239 12.1378C59.8719 12.978 59.963 13.9026 59.7856 14.7946C59.6081 15.6866 59.1702 16.5059 58.5271 17.149C57.884 17.7921 57.0647 18.23 56.1727 18.4075C55.2807 18.5849 54.3561 18.4938 53.5159 18.1458C52.6757 17.7978 51.9575 17.2084 51.4522 16.4522C50.947 15.696 50.6773 14.807 50.6773 13.8975C50.6777 12.6781 51.1623 11.5087 52.0245 10.6464C52.8868 9.78416 54.0562 9.29957 55.2756 9.29917ZM26.2525 21.943C24.7378 21.9417 23.2462 22.3149 21.9106 23.0294C20.575 23.7439 19.4368 24.7775 18.5972 26.0382C17.0272 28.3839 16.1913 31.1439 16.1959 33.9664V45.7473C16.1921 46.4142 16.355 47.0714 16.6699 47.6592C16.9847 48.247 17.4416 48.7468 17.9988 49.1132C18.556 49.4795 19.1959 49.7007 19.8604 49.7567C20.5249 49.8128 21.1929 49.7018 21.8035 49.4339L20.9543 68.867C20.9271 69.4879 21.026 70.1078 21.2451 70.6893C21.4642 71.2709 21.7989 71.802 22.2289 72.2506C22.659 72.6991 23.1755 73.0559 23.7473 73.2993C24.3191 73.5427 24.9343 73.6676 25.5557 73.6666C26.5636 73.6676 27.5438 73.337 28.3452 72.7259C29.1467 72.1148 29.725 71.2571 29.9909 70.285C30.2578 71.2577 30.8371 72.1158 31.6397 72.7268C32.4422 73.3379 33.4235 73.6681 34.4322 73.6666C35.0674 73.6646 35.6956 73.5334 36.2785 73.281C36.8614 73.0286 37.3869 72.6603 37.823 72.1984C38.1792 72.6345 38.6236 72.9904 39.127 73.2427C39.6304 73.4951 40.1815 73.6382 40.7441 73.6626C41.3067 73.6871 41.8681 73.5924 42.3915 73.3847C42.9149 73.1771 43.3885 72.8611 43.7813 72.4576C44.4878 73.1806 45.441 73.6105 46.4506 73.6614C47.4602 73.7122 48.4518 73.3804 49.2273 72.732C49.8597 73.3354 50.7012 73.6704 51.5753 73.6666C52.5305 73.6698 53.4497 73.3025 54.1397 72.6421C54.8207 73.2984 55.7294 73.6656 56.6752 73.6666C57.5221 73.6661 58.3392 73.3542 58.9709 72.7902C59.6027 72.2262 60.0049 71.4496 60.1011 70.6082L61.795 55.2748H64.7711C65.0988 55.2748 65.4228 55.2052 65.7216 55.0706C66.0205 54.936 66.2873 54.7396 66.5046 54.4942C66.7187 54.2443 66.8783 53.9526 66.9733 53.6376C67.0684 53.3226 67.0967 52.9912 67.0565 52.6646L66.6113 49.4019C67.7932 48.9696 68.7905 48.1444 69.4364 47.0644C70.0823 45.9844 70.3375 44.7152 70.1592 43.4695L68.354 30.8272C67.9937 28.3652 66.7619 26.1144 64.8825 24.4838C63.0032 22.8532 60.6011 21.9511 58.113 21.9415H53.3759C51.4192 21.9471 49.5042 22.5072 47.853 23.5569C46.2018 24.6067 44.8819 26.103 44.0466 27.8724C43.7689 27.8261 43.488 27.8021 43.2065 27.8007C42.7855 27.8027 42.3657 27.8461 41.9533 27.9303L41.3205 26.764C40.5352 25.3023 39.3677 24.0812 37.9427 23.2311C36.5177 22.3809 34.8886 21.9337 33.2292 21.9369L26.2525 21.943ZM26.2525 24.2422H33.2292C34.4736 24.2404 35.6951 24.5765 36.7635 25.2144C37.8319 25.8524 38.7071 26.7684 39.2958 27.8648L39.8172 28.8161C38.6833 29.5577 37.8232 30.65 37.3683 31.9262C36.9134 33.2025 36.8888 34.5926 37.2981 35.8841C37.7074 37.1757 38.5282 38.2979 39.6351 39.0792C40.742 39.8605 42.0742 40.2581 43.4283 40.2111C44.7824 40.1642 46.0839 39.6754 47.1341 38.8194C48.1843 37.9633 48.9254 36.7871 49.2444 35.4702C49.5633 34.1534 49.4425 32.7684 48.9004 31.5267C48.3583 30.285 47.4246 29.2548 46.2421 28.5935C46.9213 27.2865 47.945 26.1899 49.2023 25.4224C50.4596 24.655 51.9028 24.2458 53.3759 24.2392H58.113C60.0487 24.2454 61.9179 24.9463 63.3805 26.2144C64.843 27.4825 65.8018 29.2335 66.0823 31.1489L67.8829 43.7912C67.9736 44.4288 67.8699 45.0788 67.5854 45.6566C67.3009 46.2343 66.8488 46.7128 66.2881 47.0296L64.0926 30.85C64.0735 30.7004 64.0249 30.556 63.9496 30.4252C63.8743 30.2945 63.7739 30.1799 63.6541 30.0882C63.5343 29.9965 63.3976 29.9294 63.2517 29.8908C63.1058 29.8523 62.9538 29.843 62.8043 29.8636C62.5016 29.9061 62.2277 30.066 62.042 30.3088C61.8562 30.5516 61.7735 30.8577 61.8117 31.1611L64.7711 52.9772H52.9764V48.3789C52.9736 46.2459 52.125 44.2011 50.6168 42.6929C49.1086 41.1847 47.0638 40.3361 44.9309 40.3333H42.6317C40.4986 40.3357 38.4536 41.1842 36.9453 42.6925C35.437 44.2008 34.5886 46.2458 34.5862 48.3789V56.4244C34.587 57.1373 34.8085 57.8324 35.2201 58.4144C35.6318 58.9964 36.2135 59.4367 36.8853 59.675V68.803C36.8853 70.2179 35.7845 71.3675 34.4246 71.3675C33.8332 71.3678 33.2644 71.1403 32.8363 70.7323C32.4082 70.3244 32.1536 69.7672 32.1254 69.1766L31.1374 49.7129C31.1222 49.4183 30.9945 49.1407 30.7806 48.9375C30.5667 48.7343 30.2829 48.6211 29.9878 48.6211C29.6928 48.6211 29.409 48.7343 29.1951 48.9375C28.9812 49.1407 28.8534 49.4183 28.8383 49.7129L27.8427 69.1766C27.8012 69.7765 27.5265 70.3365 27.0775 70.7366C26.6285 71.1367 26.0407 71.3452 25.4399 71.3175C24.8392 71.2898 24.2731 71.0281 23.8628 70.5884C23.4524 70.1487 23.2305 69.5659 23.2443 68.9646L24.2369 46.3267V31.8563C24.2369 31.7053 24.2071 31.5558 24.1494 31.4164C24.0916 31.2769 24.0069 31.1502 23.9002 31.0434C23.7934 30.9367 23.6667 30.852 23.5272 30.7942C23.3877 30.7364 23.2383 30.7067 23.0873 30.7067C22.9363 30.7067 22.7868 30.7364 22.6474 30.7942C22.5079 30.852 22.3812 30.9367 22.2744 31.0434C22.1677 31.1502 22.083 31.2769 22.0252 31.4164C21.9674 31.5558 21.9377 31.7053 21.9377 31.8563V45.7473C21.9446 45.978 21.9051 46.2077 21.8215 46.4228C21.738 46.6379 21.6121 46.8341 21.4514 46.9997C21.2907 47.1652 21.0983 47.2969 20.8858 47.3868C20.6733 47.4767 20.4449 47.523 20.2141 47.523C19.9833 47.523 19.7549 47.4767 19.5424 47.3868C19.3299 47.2969 19.1375 47.1652 18.9768 46.9997C18.8161 46.8341 18.6902 46.6379 18.6067 46.4228C18.5231 46.2077 18.4836 45.978 18.4905 45.7473V33.9664C18.4914 31.599 19.191 29.2845 20.5015 27.3128C21.1334 26.3673 21.9889 25.5923 22.9921 25.0566C23.9953 24.521 25.1152 24.2412 26.2525 24.2422ZM43.2065 29.8758C43.2444 29.8726 43.2825 29.8757 43.3193 29.8849C44.1058 29.8967 44.8712 30.1407 45.5194 30.5863C46.246 31.0744 46.7992 31.7803 47.0994 32.6026C47.3996 33.4249 47.4314 34.3211 47.1903 35.1626C46.9491 36.0041 46.4474 36.7475 45.7573 37.2859C45.0671 37.8244 44.224 38.1302 43.3492 38.1594C42.4743 38.1886 41.6127 37.9397 40.8881 37.4485C40.1636 36.9573 39.6134 36.249 39.3167 35.4255C39.02 34.6019 38.992 33.7056 39.2367 32.8651C39.4814 32.0246 39.9862 31.2834 40.6786 30.7479C41.2891 30.2576 42.0327 29.9617 42.8132 29.8986C42.9438 29.884 43.0751 29.8764 43.2065 29.8758ZM8.15034 39.1837C7.84558 39.1841 7.55341 39.3054 7.33791 39.5209C7.12241 39.7364 7.00117 40.0286 7.00076 40.3333V42.6325C6.99514 42.7869 7.02069 42.9408 7.07589 43.0851C7.13109 43.2294 7.21481 43.3611 7.32204 43.4723C7.42927 43.5835 7.55782 43.672 7.7 43.7324C7.84219 43.7928 7.99509 43.8239 8.14958 43.8239C8.30407 43.8239 8.45698 43.7928 8.59916 43.7324C8.74135 43.672 8.86989 43.5835 8.97713 43.4723C9.08436 43.3611 9.16808 43.2294 9.22328 43.0851C9.27848 42.9408 9.30403 42.7869 9.2984 42.6325V40.3333C9.298 40.0288 9.17696 39.7369 8.96179 39.5214C8.74662 39.306 8.45484 39.1845 8.15034 39.1837ZM13.8967 39.1837C13.5924 39.1849 13.3008 39.3065 13.0857 39.5219C12.8706 39.7372 12.7495 40.0289 12.7487 40.3333V42.6325C12.7487 42.9374 12.8698 43.2298 13.0854 43.4454C13.301 43.6609 13.5934 43.7821 13.8983 43.7821C14.2031 43.7821 14.4955 43.6609 14.7111 43.4454C14.9267 43.2298 15.0478 42.9374 15.0478 42.6325V40.3333C15.047 40.0284 14.9254 39.7363 14.7097 39.5208C14.494 39.3053 14.2016 39.1841 13.8967 39.1837ZM71.3667 39.1837C71.0621 39.1845 70.7701 39.3059 70.5547 39.5213C70.3393 39.7367 70.2179 40.0287 70.2171 40.3333V42.6325C70.2171 42.9374 70.3382 43.2298 70.5538 43.4454C70.7694 43.6609 71.0618 43.7821 71.3667 43.7821C71.6716 43.7821 71.964 43.6609 72.1796 43.4454C72.3952 43.2298 72.5163 42.9374 72.5163 42.6325V40.3333C72.5155 40.0287 72.3941 39.7367 72.1787 39.5213C71.9633 39.3059 71.6713 39.1845 71.3667 39.1837ZM77.1131 39.1837C76.8086 39.1845 76.5168 39.306 76.3016 39.5214C76.0865 39.7369 75.9654 40.0288 75.965 40.3333V42.6325C75.9594 42.7869 75.985 42.9408 76.0402 43.0851C76.0954 43.2294 76.1791 43.3611 76.2863 43.4723C76.3935 43.5835 76.5221 43.672 76.6643 43.7324C76.8065 43.7928 76.9594 43.8239 77.1139 43.8239C77.2683 43.8239 77.4212 43.7928 77.5634 43.7324C77.7056 43.672 77.8342 43.5835 77.9414 43.4723C78.0486 43.3611 78.1323 43.2294 78.1875 43.0851C78.2427 42.9408 78.2683 42.7869 78.2627 42.6325V40.3333C78.2623 40.0286 78.141 39.7364 77.9255 39.5209C77.71 39.3054 77.4179 39.1841 77.1131 39.1837ZM42.6317 42.6325H44.9309C45.6856 42.6323 46.4329 42.7808 47.1302 43.0695C47.8274 43.3582 48.461 43.7815 48.9946 44.3151C49.5283 44.8488 49.9515 45.4823 50.2403 46.1796C50.529 46.8769 50.6775 47.6242 50.6773 48.3789V56.4244C50.6769 56.7292 50.5556 57.0214 50.3401 57.2369C50.1246 57.4524 49.8325 57.5736 49.5277 57.574C49.357 57.577 49.1888 57.6154 49.0337 57.6868C48.8372 57.7795 48.6712 57.9263 48.5551 58.1099C48.439 58.2935 48.3776 58.5063 48.3781 58.7236V69.6431C48.3833 69.9478 48.299 70.2473 48.1357 70.5045C47.9881 70.7671 47.773 70.9855 47.5128 71.1372C47.2525 71.2889 46.9565 71.3684 46.6553 71.3675C46.1979 71.3675 45.7593 71.1858 45.4359 70.8624C45.1126 70.539 44.9309 70.1004 44.9309 69.6431V59.8732C44.9309 59.5683 44.8098 59.2759 44.5942 59.0603C44.3786 58.8447 44.0862 58.7236 43.7813 58.7236C43.4764 58.7236 43.184 58.8447 42.9684 59.0603C42.7528 59.2759 42.6317 59.5683 42.6317 59.8732V69.6431C42.6317 70.1004 42.45 70.539 42.1267 70.8624C41.8033 71.1858 41.3647 71.3675 40.9073 71.3675C40.45 71.3675 40.0114 71.1858 39.688 70.8624C39.3646 70.539 39.183 70.1004 39.183 69.6431V58.7236C39.1826 58.4188 39.0613 58.1267 38.8458 57.9112C38.6303 57.6957 38.3382 57.5744 38.0334 57.574C37.7288 57.5736 37.4368 57.4523 37.2215 57.2368C37.0062 57.0212 36.8853 56.729 36.8853 56.4244V48.3789C36.8851 47.6242 37.0336 46.8769 37.3223 46.1796C37.6111 45.4823 38.0343 44.8488 38.568 44.3151C39.1016 43.7815 39.7352 43.3582 40.4324 43.0695C41.1297 42.7808 41.877 42.6323 42.6317 42.6325ZM55.2756 55.2748H59.4821L57.8157 70.3566C57.7847 70.6365 57.6508 70.8949 57.4401 71.0817C57.2294 71.2685 56.9568 71.3703 56.6752 71.3675C56.3044 71.3655 55.9493 71.2171 55.6872 70.9548C55.4251 70.6924 55.2772 70.3372 55.2756 69.9663V55.2748ZM52.9764 56.4244V69.9663C52.9744 70.3373 52.8262 70.6925 52.5638 70.9549C52.3015 71.2172 51.9463 71.3655 51.5753 71.3675C51.3558 71.3676 51.1408 71.3051 50.9555 71.1874C50.7703 71.0696 50.6225 70.9015 50.5294 70.7027C50.6329 70.3591 50.6843 70.0019 50.6818 69.6431V59.675C51.3529 59.436 51.9335 58.9953 52.3443 58.4134C52.7551 57.8314 52.9759 57.1367 52.9764 56.4244Z" fill="#757589"/>
</svg>
