<svg width="86" height="80" viewBox="0 0 86 80" fill="none" xmlns="http://www.w3.org/2000/svg">
<path fill-rule="evenodd" clip-rule="evenodd" d="M45.5169 11.4087C52.7016 10.8509 59.6687 5.04317 66.3629 7.68578C73.0969 10.3441 76.1957 18.0399 79.0387 24.6418C81.8274 31.1175 84.0759 38.2002 82.4552 45.0545C80.8863 51.6903 75.3362 56.3901 70.4073 61.1479C65.8471 65.5497 60.8569 69.2433 54.951 71.6039C48.5425 74.1653 41.5467 77.4529 34.9847 75.306C28.4525 73.169 25.616 65.8748 21.2794 60.5878C17.0999 55.4923 11.6732 51.2042 10.0048 44.8515C8.24326 38.1445 8.76756 30.7993 11.8176 24.5616C14.8367 18.3874 20.2249 13.2831 26.6712 10.7671C32.6396 8.4376 39.121 11.9052 45.5169 11.4087Z" fill="#EEFEFF"/>
<path d="M70.2428 42.4464C69.9053 42.4464 69.566 42.3178 69.3094 42.0593C68.7944 41.543 68.7944 40.7071 69.3094 40.192L69.86 39.6433C73.9357 35.5756 75.822 27.7365 67.7306 19.0374C65.9221 17.093 63.9017 15.4688 61.8873 14.3388C60.0599 13.3149 51.4516 10.3691 45.7827 15.8877L33.6363 27.9734C33.0839 28.5246 33.2664 28.7089 33.5004 28.9428C34.6677 30.1218 38.627 30.7012 40.9696 28.3923L44.0324 25.3749C44.0452 25.3614 44.0587 25.3504 44.0722 25.3369C46.6915 22.9607 49.6661 23.8603 52.2916 24.6522C55.2943 25.5598 58.1286 26.416 61.437 23.8052C62.0102 23.3526 62.8407 23.4506 63.2914 24.0244C63.744 24.5977 63.646 25.4275 63.0722 25.8782C58.6835 29.3428 54.7149 28.1436 51.5279 27.1796C48.8779 26.378 47.3027 25.9872 45.8654 27.2758L42.8235 30.273C41.2863 31.7875 39.1532 32.6192 36.8143 32.6211H36.7825C34.7058 32.6132 32.7313 31.9174 31.6258 30.8028C30.2472 29.4107 30.3054 27.566 31.7746 26.1024L43.9326 14.0051C46.7241 11.2878 50.4942 9.90859 54.8546 10.0047C58.4722 10.0862 61.6011 11.1499 63.1818 12.0342C65.4319 13.2958 67.6745 15.0951 69.668 17.238C75.9882 24.0335 79.0774 34.1736 71.7294 41.5094L71.1788 42.0581C70.9204 42.3147 70.5829 42.4452 70.2449 42.4452L70.2428 42.4464Z" fill="#757589"/>
<path d="M16.3844 40.9977C16.0463 40.9977 15.7089 40.8691 15.4504 40.6106L14.4399 39.602C11.0502 36.2183 9.55462 32.0176 10.115 27.4514C10.6018 23.4834 12.629 19.5112 15.8278 16.2691C19.0964 12.9534 23.1573 10.816 27.2631 10.2483C31.9843 9.59607 36.3333 11.0561 39.8418 14.4717C40.3642 14.9806 40.3752 15.8166 39.8663 16.339C39.3567 16.8614 38.5214 16.8724 37.999 16.3635C33.4382 11.9234 25.1416 10.5809 17.7067 18.123C14.9152 20.9544 13.1497 24.3815 12.735 27.7744C12.2781 31.5028 13.5134 34.9472 16.3049 37.7349L17.316 38.7436C17.8329 39.2586 17.8329 40.094 17.316 40.6108C17.0576 40.8693 16.7201 40.9979 16.3827 40.9979L16.3844 40.9977Z" fill="#757589"/>
<path d="M64.3005 53.879C63.0591 53.879 61.7277 53.3566 60.4832 52.0741L53.1444 44.5069C52.6367 43.9845 52.6501 43.1473 53.1725 42.6396C53.6968 42.1325 54.5321 42.1454 55.0398 42.6678L62.3786 50.2332C63.9685 51.872 65.2154 51.1438 65.8186 50.5651C66.8524 49.5711 67.2633 47.7584 66.126 46.5646L51.7143 31.4573C51.2109 30.9288 51.2317 30.0934 51.7578 29.59C52.2839 29.0866 53.1217 29.1068 53.6251 29.6335L68.0368 44.7408C70.296 47.1097 69.5948 50.5951 67.6497 52.466C66.7635 53.3185 65.581 53.8752 64.3004 53.8752L64.3005 53.879Z" fill="#757589"/>
<path d="M58.3511 59.3832C57.0044 59.3832 55.7636 58.8627 54.8168 57.8914L46.7499 49.604C46.2403 49.0816 46.2519 48.2463 46.7743 47.7368C47.2967 47.2278 48.1321 47.2388 48.6416 47.7612L56.7066 56.0486C57.9193 57.2937 59.7087 56.6451 60.5937 55.7846C61.1333 55.2604 62.2044 53.8481 60.4786 52.069L52.5948 43.9347C52.0871 43.4105 52.1006 42.5745 52.6248 42.0675C53.1491 41.5598 53.985 41.5732 54.4921 42.0975L62.3759 50.2324C63.8543 51.758 64.1036 53.2669 64.0527 54.2647C63.9884 55.5171 63.4133 56.7298 62.4347 57.6802C61.4536 58.6331 60.135 59.2462 58.8171 59.3625C58.6603 59.3759 58.5035 59.3833 58.3492 59.3833L58.3511 59.3832Z" fill="#757589"/>
<path d="M51.9065 64.3298C51.6236 64.3298 51.3431 64.3071 51.062 64.26C50.343 64.1393 49.8567 63.4583 49.9774 62.7399C50.098 62.0215 50.779 61.5347 51.4974 61.6553C52.6482 61.8476 53.9851 61.1764 54.5418 60.1279C55.0434 59.1829 54.8021 58.1492 53.8399 57.1404C53.3365 56.6119 53.3574 55.7765 53.8853 55.2731C54.4132 54.7691 55.2491 54.7899 55.7525 55.3185C57.4931 57.1459 57.9119 59.407 56.8745 61.3649C55.9167 63.1698 53.9171 64.3278 51.9047 64.3278L51.9065 64.3298Z" fill="#757589"/>
<path d="M21.2291 53.0954C19.932 53.0954 18.6361 52.6012 17.6476 51.6145L17.2177 51.1846C15.2425 49.2095 15.2425 45.9961 17.2177 44.0211L22.7927 38.4443C23.7456 37.4896 25.0182 36.9653 26.3748 36.9653H26.3767C27.7326 36.9653 29.004 37.4914 29.9563 38.4443L30.3863 38.8743C32.3614 40.8488 32.3614 44.0628 30.3863 46.0373L24.8112 51.6147C23.8228 52.6032 22.5269 53.0955 21.2291 53.0955L21.2291 53.0954ZM26.373 39.606C25.722 39.606 25.1126 39.8565 24.6581 40.3115L19.0831 45.8883C18.1381 46.8333 18.1381 48.3723 19.0831 49.3173L19.513 49.7472C20.4427 50.6769 22.0118 50.6769 22.942 49.7472L28.517 44.1705C29.4467 43.2402 29.4467 41.6712 28.517 40.7415L28.0871 40.3115C27.6327 39.8565 27.0233 39.606 26.3728 39.606H26.373Z" fill="#757589"/>
<path d="M27.3011 58.9508C26.0034 58.9508 24.7075 58.4566 23.7196 57.47L23.2891 57.04C22.3367 56.0877 21.8125 54.8162 21.8125 53.4604C21.8125 52.1026 22.3367 50.8294 23.2891 49.8771L32.1694 40.9975C34.1439 39.0223 37.3579 39.0223 39.3324 40.9975L39.7623 41.4274C40.7153 42.3797 41.2414 43.6529 41.2395 45.0106C41.2395 46.3666 40.7128 47.638 39.7623 48.5884L30.8827 57.4681C29.8967 58.4547 28.599 58.9489 27.3012 58.9489L27.3011 58.9508ZM35.7526 42.1563C35.1322 42.1563 34.5112 42.3915 34.0377 42.8649L25.1581 51.7446C24.7037 52.1996 24.455 52.8084 24.455 53.4594C24.455 54.1098 24.7055 54.7192 25.1581 55.1718L25.5886 55.6017C26.5183 56.532 28.0874 56.532 29.017 55.6017L37.8973 46.7221C38.3517 46.2695 38.6003 45.6601 38.6003 45.0097C38.6003 44.3568 38.3517 43.7481 37.8973 43.2955L37.4667 42.8649C36.9933 42.3933 36.3729 42.1563 35.7525 42.1563L35.7526 42.1563Z" fill="#757589"/>
<path d="M33.7229 64.4568C32.4252 64.4568 31.1292 63.9626 30.1414 62.9759L29.7108 62.546C28.7585 61.5937 28.2343 60.3222 28.2324 58.9664C28.2324 57.6098 28.7567 56.3371 29.7108 55.3825L35.7996 49.2943C36.7538 48.3402 38.0251 47.8159 39.3811 47.8159C40.7371 47.8159 42.0085 48.3402 42.9627 49.2943L43.3932 49.7243C45.3677 51.6994 45.3677 54.9128 43.3932 56.8878L37.3044 62.9759C36.3184 63.9626 35.0207 64.4568 33.7229 64.4568ZM39.3812 50.4524C38.7608 50.4524 38.1404 50.6882 37.6663 51.1616L31.5781 57.2497C31.1237 57.7042 30.8732 58.3135 30.8732 58.9646C30.8732 59.615 31.1237 60.2244 31.5781 60.677L32.0087 61.1069C32.953 62.0519 34.4921 62.0519 35.437 61.1069L41.5258 55.0188C42.4701 54.0738 42.4701 52.5347 41.5258 51.5898L41.0953 51.1599C40.6218 50.6865 40.0014 50.4507 39.381 50.4507L39.3812 50.4524Z" fill="#757589"/>
<path d="M39.9867 70.0225C38.689 70.0225 37.3931 69.5283 36.4045 68.5417L35.9746 68.1118C35.0223 67.1613 34.498 65.8898 34.498 64.534C34.498 63.1756 35.0223 61.903 35.9746 60.9501L39.7129 57.2118C40.6653 56.2595 41.9384 55.7334 43.2945 55.7334C44.651 55.7334 45.9218 56.2595 46.8766 57.2118L47.3065 57.6423C49.281 59.6169 49.281 62.8309 47.3065 64.8054L43.5682 68.5437C42.5816 69.5303 41.2845 70.0246 39.9867 70.0246V70.0225ZM43.2945 58.368C42.6741 58.368 42.0537 58.6038 41.5802 59.0772L37.8419 62.8155C37.3875 63.2699 37.1382 63.8793 37.1382 64.5304C37.1382 65.1808 37.3893 65.7901 37.8419 66.2427L38.2719 66.6727C39.2021 67.6005 40.7711 67.6023 41.7008 66.6727L45.4391 62.9344C46.3688 62.0047 46.3688 60.4356 45.4391 59.5054L45.0092 59.0755C44.5358 58.6021 43.9154 58.3663 43.2943 58.3663L43.2945 58.368Z" fill="#757589"/>
</svg>
