<svg width="86" height="80" viewBox="0 0 86 80" fill="none" xmlns="http://www.w3.org/2000/svg">
<path fill-rule="evenodd" clip-rule="evenodd" d="M42.3329 3.05175C36.0572 2.61093 29.4423 5.01103 24.8908 9.30969C20.562 13.398 21.6161 20.5356 18.4803 25.5791C15.2133 30.8338 7.61033 33.1758 6.3017 39.2081C4.98598 45.2731 8.18953 51.5753 11.7304 56.6938C15.1453 61.6304 20.3016 65.0867 25.8486 67.4647C31.0309 69.6863 36.7141 70.3765 42.3329 69.8132C47.6199 69.2832 52.3477 66.8913 56.9958 64.3423C61.7135 61.7551 66.4628 59.1206 69.6641 54.8246C73.0663 50.2589 75.1626 44.8537 75.7253 39.2081C76.3212 33.2299 76.1728 26.8053 72.9653 21.7053C69.7847 16.648 63.5282 14.7853 58.4019 11.6636C53.1241 8.44968 48.5142 3.48593 42.3329 3.05175Z" fill="#FBEDED"/>
<path d="M25.0897 60.0845L21.8691 77.9726H52.431L49.2104 60.0845H25.0897ZM24.672 75.6291L27.0482 62.4276H47.2514L49.6276 75.6291H24.672Z" fill="#757589"/>
<path d="M14.4438 75.1668C17.4111 75.6955 20.1949 73.7262 20.7139 70.8061L22.7374 59.556H32.0642L42.8794 56.8521C48.0213 55.5352 51.1335 50.2836 49.8305 45.1958L47.1546 32.3239C49.2438 32.998 51.3151 33.4916 53.3507 33.8175L55.7026 57.6906L58.4506 57.2398L59.2401 73.2875C59.36 75.6574 61.3126 77.5138 63.6856 77.5138C66.0579 77.5138 68.0112 75.6574 68.1311 73.2875L69.0328 55.5022L76 54.3581L70.5545 27.659C69.3792 22.9908 64.7569 20.1478 60.1041 21.1019C57.5653 21.6312 55.4021 23.2357 54.1496 25.4614C50.7104 24.8517 47 23.5679 43.0996 21.6222C41.2937 20.723 39.0061 21.2459 37.8308 22.8925C36.4878 22.7063 35.0383 22.7701 33.6952 23.1164C27.9296 24.5882 24.4136 30.477 25.8498 36.198L26.3288 38.492C24.9181 39.1737 23.445 39.7202 22.7358 39.8051C17.479 40.4606 17.4235 48.0266 22.4973 48.7632H20.1893C16.4427 48.7632 13.2375 51.4416 12.5666 55.1346L10.0967 68.8904C9.53615 71.7742 11.4684 74.6382 14.4434 75.1662L14.4438 75.1668ZM65.7916 73.1707C65.7355 74.2931 64.8102 75.1719 63.6864 75.1719C62.5627 75.1719 61.6374 74.2925 61.5812 73.1713L60.7789 56.8589L66.6676 55.8921L65.7916 73.1707ZM60.5788 23.3966C64.0232 22.6932 67.4209 24.8086 68.2723 28.1796L73.2192 52.4414C71.1159 52.7819 56.8754 55.116 57.7913 54.9745L55.7379 34.1297C57.0305 34.2407 58.7722 34.293 60.1586 34.1967C62.3274 34.0506 64.0263 32.2178 64.0263 30.0228C64.0263 27.6499 61.9893 25.6767 59.5839 25.8483C58.8492 25.8942 57.7817 25.893 56.7785 25.8139C56.7676 25.8132 56.7574 25.8126 56.7466 25.812C56.737 25.8113 56.7268 25.8094 56.7166 25.8088C57.6636 24.5869 59.029 23.7209 60.5786 23.3975L60.5788 23.3966ZM53.1409 27.6644L53.1288 27.6924C53.9795 27.7868 56.607 28.3761 59.7388 28.1841L59.8683 28.1796C60.8873 28.1796 61.6825 29.0572 61.6825 30.0207C61.6825 30.8676 61.0531 31.7865 59.9977 31.8574C53.4707 32.314 46.263 29.9499 40.3709 27.0042C38.6554 26.1547 39.2657 23.5286 41.2139 23.5286C42.3523 23.5292 46.2947 26.3154 53.1407 27.6642L53.1409 27.6644ZM23.0215 42.1318C23.9985 42.0144 25.464 41.4743 26.8223 40.8512L26.837 40.9207C29.3776 39.4961 32.1174 38.5026 33.5178 32.8088C34.2595 29.7521 39.0264 30.77 38.2433 34.0326C35.9825 43.0041 31.3635 43.6916 27.8968 45.1398C26.2228 45.7469 24.5966 46.2342 23.5201 46.4459C20.7555 46.9981 19.9953 42.5086 23.0214 42.1316L23.0215 42.1318ZM28.203 47.5149L28.4645 48.7635H23.7695C25.05 48.5709 26.9901 47.9409 28.2029 47.5149H28.203ZM12.4008 69.3212L14.8738 55.5527C15.3406 52.977 17.5772 51.1077 20.1898 51.1077H31.3475L30.4241 46.6896C34.2198 45.182 35.8511 44.133 37.9958 40.6728C39.0595 38.9572 40.6589 35.3502 40.6589 33.4135C40.6589 27.8193 32.5796 26.7531 31.2415 32.2528C30.7976 34.0557 29.8723 36.1627 28.4617 37.2488L28.132 35.6749C26.7328 30.0923 31.2319 24.7079 37.0276 25.1468C36.8401 28.6026 40.1225 29.7244 44.5713 31.4155C44.6707 31.8466 44.5955 31.5278 47.5487 45.7248C48.5442 49.6123 46.1898 53.5859 42.3015 54.5815L31.9186 57.2127H20.78L18.4084 70.3938C18.1169 72.0284 16.5583 73.1584 14.8549 72.8605C13.1782 72.562 12.0833 70.9466 12.4003 69.3211L12.4008 69.3212Z" fill="#757589"/>
<path d="M27.9848 5.47217C23.2867 5.47217 19.4629 9.28897 19.4629 13.9813C19.4629 18.68 23.2861 22.5032 27.9848 22.5032C32.6771 22.5032 36.4952 18.6807 36.4952 13.9813C36.4952 9.28962 32.6778 5.47217 27.9848 5.47217ZM27.9848 20.1603C24.5781 20.1603 21.8058 17.3882 21.8058 13.9813C21.8058 10.5816 24.5779 7.81508 27.9848 7.81508C31.3858 7.81508 34.1522 10.5815 34.1522 13.9813C34.1522 17.388 31.3858 20.1603 27.9848 20.1603Z" fill="#757589"/>
<path d="M58.4033 3C53.5987 3 49.6895 6.90986 49.6895 11.7152C49.6895 16.5205 53.5987 20.4297 58.4033 20.4297C63.2093 20.4297 67.1185 16.5205 67.1185 11.7152C67.1185 6.90921 63.2093 3 58.4033 3ZM58.4033 18.0867C54.89 18.0867 52.0325 15.2283 52.0325 11.7152C52.0325 8.20139 54.8902 5.34308 58.4033 5.34308C61.9165 5.34308 64.7755 8.20139 64.7755 11.7152C64.7755 15.2285 61.9165 18.0867 58.4033 18.0867Z" fill="#757589"/>
</svg>
