<svg width="86" height="80" viewBox="0 0 86 80" fill="none" xmlns="http://www.w3.org/2000/svg">
<g clip-path="url(#clip0_3212_642)">
<path fill-rule="evenodd" clip-rule="evenodd" d="M46.3083 75.9719C63.2149 75.5384 79.9281 67.1913 84.851 50.9173C89.55 35.3836 79.1644 20.4529 65.904 11.193C53.6426 2.63063 37.991 1.30486 25.4378 9.4282C10.0371 19.3942 -4.30676 35.4962 1.20257 53.0622C6.80484 70.9245 27.6926 76.4492 46.3083 75.9719Z" fill="#F4F9FD"/>
<path d="M75.0563 52.0347H53.6862C53.165 52.0347 52.7407 52.459 52.7407 52.9802V58.688H32.3159C31.7946 58.688 31.3703 59.1123 31.3703 59.6335V64.437H10.9456C10.4243 64.437 10 64.8613 10 65.3826V73.3982C10 73.9194 10.4243 74.3438 10.9456 74.3438H75.0545C75.5757 74.3438 76 73.9194 76 73.3982V52.9808C76 52.4595 75.5763 52.0352 75.055 52.0352L75.0563 52.0347ZM11.8913 66.3349H31.3707V72.4596H11.8913V66.3349ZM33.2614 65.3894V60.5859H52.7409V72.4595H33.2614V65.3894ZM74.111 72.4595H54.6316V53.9254H74.111V72.4595Z" fill="#757589"/>
<path d="M33.2608 39.4388C35.1863 40.7043 37.7867 40.1619 39.0447 38.2364L42.9726 32.2437V43.4223C42.9726 44.076 42.7851 44.7084 42.4233 45.2509L38.6274 51.0348C37.3619 52.9603 37.9043 55.5532 39.8298 56.8187C40.5179 57.2706 41.3104 57.5068 42.1172 57.5068C42.4021 57.5068 42.6871 57.4793 42.9721 57.4162C44.0633 57.1869 45.002 56.5475 45.6138 55.6157L50.1604 48.6779C50.7654 47.7536 51.0847 46.683 51.0847 45.5775V41.4272C51.0847 39.8423 52.3709 38.5561 53.9559 38.5561H55.1795C56.7644 38.5561 58.0506 39.8423 58.0506 41.4272V45.4801C58.0506 47.7812 59.9274 49.6579 62.2285 49.6579C63.3478 49.6579 64.3977 49.2198 65.1833 48.4343C65.9758 47.6418 66.407 46.5919 66.407 45.4726V37.6101V36.0877C66.407 32.841 63.7653 30.1994 60.5187 30.1994H57.4877C57.2514 30.1994 57.0634 30.005 57.0634 29.775V27.1334C57.0634 26.7859 57.2302 26.4659 57.5152 26.2646L66.2815 20.1331C67.2271 19.4656 67.8458 18.4714 68.0196 17.3245C68.1934 16.1776 67.8946 15.0441 67.1784 14.1335C65.8091 12.3817 63.313 12.0131 61.4919 13.2855L53.7961 18.6663C52.6631 19.4587 51.3282 19.8831 49.9446 19.8831L45.148 19.89C42.5894 19.8968 40.2259 21.1761 38.8215 23.3104L32.0432 33.6547C30.7931 35.5808 31.3287 38.1738 33.2611 39.4387L33.2608 39.4388ZM33.6364 34.6909L40.4147 24.3466C41.4646 22.7405 43.2438 21.7811 45.1626 21.7743L49.9592 21.7674C51.7321 21.7674 53.4352 21.225 54.8882 20.2101L62.584 14.8293C63.5783 14.1343 64.9476 14.3356 65.6982 15.2949C66.0875 15.7955 66.2544 16.4142 66.1569 17.0398C66.0663 17.6654 65.7257 18.2147 65.2045 18.576L56.445 24.7075C55.6595 25.2569 55.187 26.1606 55.187 27.1267V29.7684C55.187 31.0477 56.23 32.0901 57.5087 32.0901H60.5396C62.7433 32.0901 64.5301 33.8837 64.5301 36.0805V37.6029V45.4723C64.5301 46.0841 64.2938 46.661 63.8626 47.0922C63.4314 47.5233 62.8545 47.7596 62.2427 47.7596C60.9847 47.7596 59.9554 46.7309 59.9554 45.4723V41.4195C59.9554 38.7916 57.8212 36.6574 55.1933 36.6574H53.9697C51.3418 36.6574 49.2075 38.7916 49.2075 41.4195V45.5697C49.2075 46.3066 48.9919 47.0228 48.5888 47.6345L44.0422 54.5723C43.7085 55.0866 43.1942 55.4341 42.5961 55.5597C41.998 55.6847 41.3862 55.5666 40.8787 55.2328C39.8288 54.5447 39.5301 53.1193 40.2182 52.0699L44.0141 46.2859C44.5772 45.431 44.869 44.4436 44.869 43.4217L44.8708 29.0739C44.8708 28.657 44.5927 28.2883 44.1964 28.1702C44.1058 28.1427 44.0158 28.1283 43.9252 28.1283C43.6121 28.1283 43.3134 28.2814 43.1328 28.5527L37.4668 37.1939C36.7787 38.2507 35.3533 38.5426 34.297 37.8545C33.2402 37.1658 32.9483 35.7473 33.6364 34.691L33.6364 34.6909Z" fill="#757589"/>
<path d="M48.0698 19.0566C51.5733 19.0566 54.4307 16.2061 54.4307 12.6957V11.3608C54.4307 7.85733 51.5802 5 48.0698 5C44.5594 5 41.709 7.85043 41.709 11.3608V12.6957C41.7084 16.2061 44.5588 19.0566 48.0698 19.0566ZM43.5995 11.3608C43.5995 8.89967 45.6019 6.89052 48.0698 6.89052C50.5309 6.89052 52.5401 8.89292 52.5401 11.3608V12.6957C52.5401 15.1568 50.5377 17.166 48.0698 17.166C45.6087 17.166 43.5995 15.1636 43.5995 12.6957V11.3608Z" fill="#757589"/>
</g>
<defs>
<clipPath id="clip0_3212_642">
<rect width="85.5181" height="80" fill="white"/>
</clipPath>
</defs>
</svg>
