<svg width="28" height="25" viewBox="0 0 28 25" fill="none" xmlns="http://www.w3.org/2000/svg">
<path d="M25.1279 2.32825C24.4632 1.66363 23.6742 1.13649 22.8057 0.776959C21.9373 0.417429 21.0065 0.232558 20.0666 0.232911C19.1266 0.233264 18.196 0.418834 17.3278 0.779015C16.4597 1.1392 15.671 1.66693 15.0068 2.33206L14.1399 3.20954L13.2802 2.33396L13.2746 2.32837C12.6103 1.66405 11.8217 1.13709 10.9537 0.777565C10.0857 0.41804 9.15545 0.232995 8.21597 0.232995C7.2765 0.232995 6.34622 0.41804 5.47825 0.777565C4.61029 1.13709 3.82164 1.66405 3.15733 2.32837L2.77112 2.71457C1.4295 4.0562 0.675781 5.87584 0.675781 7.77319C0.675781 9.67054 1.4295 11.4902 2.77112 12.8318L12.964 23.0246L14.1151 24.2306L14.1425 24.2031L14.1723 24.2329L15.2508 23.095L25.5141 12.8316C26.8537 11.4889 27.606 9.66971 27.606 7.77302C27.606 5.87634 26.8537 4.0571 25.5141 2.7144L25.1279 2.32825ZM24.2492 11.567L14.1425 21.6739L4.0357 11.567C3.02949 10.5608 2.4642 9.19606 2.4642 7.77305C2.4642 6.35004 3.02949 4.98532 4.0357 3.97909L4.42196 3.59289C5.42769 2.58717 6.79159 2.02192 8.2139 2.02139C9.63621 2.02085 11.0005 2.58507 12.007 3.59004L14.1361 5.75786L16.2752 3.59289C16.7734 3.09465 17.3649 2.69943 18.0159 2.42979C18.6669 2.16014 19.3646 2.02136 20.0692 2.02136C20.7738 2.02136 21.4715 2.16014 22.1225 2.42979C22.7735 2.69943 23.365 3.09465 23.8632 3.59289L24.2494 3.97904C25.2541 4.98609 25.8183 6.35054 25.8183 7.77307C25.8182 9.19559 25.2539 10.56 24.2492 11.567Z" fill="#BDBDBD"/>
</svg>
