<svg width="204" height="36" viewBox="0 0 204 36" fill="none" xmlns="http://www.w3.org/2000/svg">
<path d="M20.3271 23.7388C21.0263 23.7388 21.5506 24.1736 21.5506 24.8692C21.5506 25.4779 21.0263 25.9996 20.3271 25.9996H6.16863C5.11985 25.9996 4.15848 26.4344 3.4593 27.1301C2.84751 27.8257 2.41052 28.7822 2.41052 29.8257C2.41052 30.8692 2.84751 31.8257 3.4593 32.5214C4.15848 33.217 5.11985 33.6518 6.16863 33.6518C6.86781 33.6518 7.56699 33.4779 8.09138 33.1301C8.70316 32.7822 9.22755 32.2605 9.48974 31.7388C10.4511 30.1736 11.2377 28.6953 11.2377 28.6953C11.5873 28.0866 12.2865 27.9127 12.8109 28.1736C13.4226 28.5214 13.5974 29.217 13.3352 29.8257C13.3352 29.8257 12.3739 31.4779 11.5873 32.8692C10.9755 33.8257 10.1889 34.6083 9.31495 35.1301C8.35357 35.6518 7.3048 35.9127 6.16863 35.9127C4.50807 35.9127 2.93491 35.217 1.88614 34.1736C0.749964 33.0431 0.0507812 31.4779 0.0507812 29.8257C0.0507812 28.0866 0.749964 26.6083 1.88614 25.4779C2.93491 24.3475 4.50807 23.7388 6.16863 23.7388H20.3271Z" fill="#373435"/>
<path d="M21.2876 20.6084C20.938 20.0866 21.1128 19.391 21.7245 19.0431C22.2489 18.6953 22.9481 18.9562 23.2977 19.4779L30.2895 31.6518C30.8139 32.6084 31.6879 33.2171 32.6493 33.4779C33.5232 33.7388 34.572 33.6518 35.5334 33.1301C36.4074 32.6084 37.1066 31.7388 37.2813 30.7823C37.5435 29.8257 37.4561 28.7823 36.9318 27.9127C36.5822 27.304 36.1452 26.8692 35.5334 26.5214C34.9216 26.1736 34.3098 25.9997 33.6106 25.9997C31.3383 25.9997 30.1147 25.9997 30.1147 25.9997C29.4155 25.9997 28.8912 25.4779 28.8912 24.8692C28.8912 24.1736 29.4155 23.6518 30.1147 23.6518C30.1147 23.6518 32.3871 23.6518 33.6106 23.6518C34.7468 23.6518 35.7956 23.9997 36.757 24.5214C37.6309 25.0431 38.4175 25.8257 38.9419 26.7823C39.8159 28.2605 39.9907 29.9127 39.5537 31.391C39.1167 32.9562 38.1553 34.2605 36.6696 35.1301C35.1838 35.9127 33.5232 36.0866 32.0375 35.7388C30.4643 35.304 29.1534 34.3475 28.2794 32.8692L21.2876 20.6084Z" fill="#373435"/>
<path d="M18.0549 21.3911C17.7054 21.9129 17.0062 22.0868 16.4818 21.8259C15.87 21.4781 15.6952 20.7824 16.0448 20.2607L23.124 7.99984C23.6484 7.13027 23.7358 6.08679 23.4736 5.13027C23.2114 4.17375 22.5996 3.30418 21.7257 2.78245C20.7643 2.26071 19.7155 2.17375 18.7541 2.43462C17.7928 2.69549 17.0062 3.30418 16.4818 4.17375C16.1322 4.78245 15.9574 5.4781 15.9574 6.17375C15.9574 6.78245 16.1322 7.4781 16.4818 8.08679C17.181 9.30418 18.2297 11.0433 18.2297 11.0433C18.5793 11.652 18.4045 12.3477 17.8801 12.6955C17.2684 12.9564 16.5692 12.7824 16.2196 12.2607C16.2196 12.2607 15.433 10.8694 14.4716 9.21723C13.9472 8.26071 13.5977 7.21723 13.5977 6.17375C13.5977 5.13027 13.8598 3.99984 14.4716 3.04331C15.2582 1.56505 16.6566 0.608532 18.1423 0.173749C19.7155 -0.174077 21.3761 -0.000163701 22.8618 0.782445C24.3476 1.65201 25.309 3.04331 25.746 4.52158C26.0955 6.08679 25.9207 7.73897 25.1342 9.21723L18.0549 21.3911Z" fill="#373435"/>
<path d="M10.6253 20.1737C12.5078 20.1737 14.0338 18.6554 14.0338 16.7824C14.0338 14.9095 12.5078 13.3911 10.6253 13.3911C8.74284 13.3911 7.2168 14.9095 7.2168 16.7824C7.2168 18.6554 8.74284 20.1737 10.6253 20.1737Z" fill="#F58634"/>
<path d="M29.0667 20.1737C30.9492 20.1737 32.4752 18.6554 32.4752 16.7824C32.4752 14.9095 30.9492 13.3911 29.0667 13.3911C27.1842 13.3911 25.6582 14.9095 25.6582 16.7824C25.6582 18.6554 27.1842 20.1737 29.0667 20.1737Z" fill="#009ADC"/>
<path d="M19.8909 35.9999C21.7734 35.9999 23.2995 34.4816 23.2995 32.6086C23.2995 30.7356 21.7734 29.2173 19.8909 29.2173C18.0085 29.2173 16.4824 30.7356 16.4824 32.6086C16.4824 34.4816 18.0085 35.9999 19.8909 35.9999Z" fill="#00ACAA"/>
<path d="M61.5789 19.5651C64.5505 19.5651 64.9874 17.3042 64.9874 15.4781C64.9874 15.4781 64.1135 15.9999 61.0545 15.9999H53.7131V9.47813H63.7639C66.3858 9.47813 66.3858 5.91292 66.3858 5.91292H48.9062V29.0433C48.9062 31.3042 52.7518 31.3042 52.7518 31.3042H63.7639C66.2984 31.3042 66.3858 27.9999 66.3858 27.826H53.7131V19.5651H61.5789ZM81.2434 29.2173C81.2434 31.4781 85.8755 31.5651 85.8755 31.5651V18.4347C85.9629 16.7825 87.8857 15.9999 89.721 15.9999C91.469 15.9999 92.6925 16.9564 92.6925 19.3042V29.2173C92.6925 31.4781 97.3246 31.5651 97.3246 31.5651V18.7825C97.3246 14.6086 94.0035 12.6086 90.0706 12.6086C85.6133 12.6086 83.9528 14.1738 83.9528 14.1738C82.467 13.0434 80.3695 12.6086 78.3593 12.6086C76.4366 12.6086 74.776 13.3912 73.028 13.3912C71.1927 13.3912 69.7943 12.6086 69.7943 12.6086V29.2173C69.7943 31.5651 74.4264 31.5651 74.4264 31.5651V16.5216C74.4264 16.5216 75.9996 16.0868 77.8349 16.0868C80.3695 16.0868 81.2434 17.1303 81.2434 19.0433V29.2173ZM117.688 18.7825C117.688 14.9564 114.367 12.6086 110.609 12.6086C107.638 12.6086 105.977 13.9999 105.977 13.9999C105.977 13.9999 106.239 12.7825 106.239 11.9129V6.95639C106.239 4.26074 101.957 4.26074 101.607 4.26074V30.4347C104.404 30.6086 106.327 31.739 109.298 31.739C114.804 31.739 117.688 29.4781 117.688 25.5651V18.7825ZM106.239 18.9564C106.239 17.2173 108.162 15.9999 110.085 15.9999C111.833 15.9999 113.056 16.9564 113.056 19.3042V25.0433C113.056 27.3042 112.182 28.3477 109.211 28.3477C107.638 28.3477 106.676 27.9999 106.239 27.826V18.9564ZM125.904 19.3912C125.904 17.2173 126.603 15.9999 129.05 15.9999C131.235 15.9999 132.022 17.0434 132.022 18.5216C132.022 19.9129 131.148 20.7825 128.613 20.7825C127.477 20.7825 126.253 20.5216 125.904 20.4347V19.3912ZM129.837 31.739C133.944 31.739 136.916 29.9999 136.916 27.4781C136.916 26.6086 136.566 25.652 135.867 24.6086C135.78 26.6955 133.42 28.1738 129.837 28.1738C127.215 28.1738 125.904 27.1303 125.904 24.9564V23.652C126.952 24.0868 128.089 24.3477 129.225 24.3477C134.906 24.3477 136.654 21.4781 136.654 18.5216C136.654 14.9564 134.294 12.6086 129.137 12.6086C124.068 12.6086 121.272 14.9564 121.272 18.8694V25.4781C121.272 29.3912 124.418 31.739 129.837 31.739ZM140.499 25.4781C140.499 29.4781 143.208 31.739 147.928 31.739C152.123 31.739 154.221 29.826 154.221 27.739C154.221 26.6086 153.696 25.5651 152.735 24.5216C152.735 27.3912 150.637 28.2607 148.54 28.2607C145.83 28.2607 145.131 26.8694 145.131 24.5216V17.3912H149.763C152.385 17.3912 152.385 13.9129 152.385 13.9129H145.131V12.6086C145.131 9.56509 141.461 9.56509 140.499 9.56509V25.4781ZM156.406 25.4781C156.406 29.4781 159.115 31.739 163.747 31.739C168.029 31.739 170.127 29.826 170.127 27.739C170.127 26.6086 169.603 25.5651 168.641 24.5216C168.641 27.3912 166.456 28.2607 164.359 28.2607C161.649 28.2607 161.038 26.8694 161.038 24.5216V17.3912H165.67C168.292 17.3912 168.292 13.9129 168.292 13.9129H161.038V12.6086C161.038 9.56509 157.367 9.56509 156.406 9.56509V25.4781ZM176.507 19.3912C176.507 17.2173 177.206 15.9999 179.653 15.9999C181.838 15.9999 182.625 17.0434 182.625 18.5216C182.625 19.9129 181.751 20.7825 179.216 20.7825C178.168 20.7825 176.857 20.5216 176.507 20.4347V19.3912ZM180.527 31.739C184.635 31.739 187.519 29.9999 187.519 27.4781C187.519 26.6086 187.17 25.652 186.47 24.6086C186.383 26.6955 184.023 28.1738 180.527 28.1738C177.818 28.1738 176.507 27.1303 176.507 24.9564V23.652C177.643 24.0868 178.779 24.3477 179.916 24.3477C185.509 24.3477 187.344 21.4781 187.344 18.5216C187.344 14.9564 184.897 12.6086 179.741 12.6086C174.672 12.6086 171.875 14.9564 171.875 18.8694V25.4781C171.875 29.3912 175.109 31.739 180.527 31.739ZM195.735 31.5651V16.6086C196.172 16.5216 197.22 16.1738 198.444 16.1738C200.541 16.1738 202.289 17.2173 202.289 19.3912C202.552 19.0433 203.95 17.652 203.95 15.9129C203.95 13.5651 201.678 12.6086 199.143 12.6086C197.046 12.6086 195.472 13.3912 193.899 13.3912C193.113 13.3912 192.151 13.2173 191.102 12.6086V29.2173C191.102 31.5651 195.735 31.5651 195.735 31.5651Z" fill="#373435"/>
</svg>
