<svg width="32" height="32" viewBox="0 0 32 32" fill="none" xmlns="http://www.w3.org/2000/svg">
<path fill-rule="evenodd" clip-rule="evenodd" d="M7.53842 14.8459C7.53842 10.8101 10.8101 7.53842 14.8459 7.53842C18.8817 7.53842 22.1534 10.8101 22.1534 14.8459C22.1534 18.8817 18.8817 22.1534 14.8459 22.1534C10.8101 22.1534 7.53842 18.8817 7.53842 14.8459ZM14.8459 6C9.96044 6 6 9.96044 6 14.8459C6 19.7313 9.96044 23.6918 14.8459 23.6918C17.0119 23.6918 18.9961 22.9133 20.5339 21.6208L24.6873 25.7741C24.9877 26.0745 25.4747 26.0745 25.7751 25.7741C26.0755 25.4737 26.0755 24.9867 25.7751 24.6863L21.6217 20.5329C22.9136 18.9952 23.6918 17.0114 23.6918 14.8459C23.6918 9.96044 19.7313 6 14.8459 6Z" fill="#BDBDBD"/>
</svg>
