<svg width="26" height="18" viewBox="0 0 26 18" fill="none" xmlns="http://www.w3.org/2000/svg">
<path fill-rule="evenodd" clip-rule="evenodd" d="M0.5 1.5C0.5 0.809644 1.05964 0.25 1.75 0.25H24.25C24.9404 0.25 25.5 0.809644 25.5 1.5C25.5 2.19036 24.9404 2.75 24.25 2.75H1.75C1.05964 2.75 0.5 2.19036 0.5 1.5ZM5.5 9C5.5 8.30964 6.05964 7.75 6.75 7.75H24.25C24.9404 7.75 25.5 8.30964 25.5 9C25.5 9.69036 24.9404 10.25 24.25 10.25H6.75C6.05964 10.25 5.5 9.69036 5.5 9ZM1.75 15.25C1.05964 15.25 0.5 15.8096 0.5 16.5C0.5 17.1904 1.05964 17.75 1.75 17.75H24.25C24.9404 17.75 25.5 17.1904 25.5 16.5C25.5 15.8096 24.9404 15.25 24.25 15.25H1.75Z" fill="#252B42"/>
</svg>
